<svg width="68" height="59" viewBox="0 0 68 59" fill="none" xmlns="http://www.w3.org/2000/svg">
<path d="M34 0C15.2177 0 0 13.2036 0 29.5C0 45.7964 15.2177 59 34 59C52.7823 59 68 45.7964 68 29.5C68 13.2036 52.7823 0 34 0ZM34 11.4194C40.6629 11.4194 46.0645 16.106 46.0645 21.8871C46.0645 27.6681 40.6629 32.3548 34 32.3548C27.3371 32.3548 21.9355 27.6681 21.9355 21.8871C21.9355 16.106 27.3371 11.4194 34 11.4194ZM34 52.3387C25.9524 52.3387 18.7411 49.1746 13.9153 44.2262C16.4927 40.0153 21.5379 37.1129 27.4194 37.1129C27.7484 37.1129 28.0774 37.1605 28.3927 37.2438C30.175 37.7433 32.0395 38.0645 34 38.0645C35.9605 38.0645 37.8387 37.7433 39.6073 37.2438C39.9226 37.1605 40.2516 37.1129 40.5806 37.1129C46.4621 37.1129 51.5073 40.0153 54.0847 44.2262C49.2589 49.1746 42.0476 52.3387 34 52.3387Z" fill="#6D60F7"/>
</svg>
